<svg width="253" height="246" viewBox="0 0 253 246" fill="none" xmlns="http://www.w3.org/2000/svg">
<path d="M172.618 33.3109C184.84 33.3464 196.55 38.0827 205.192 46.4855C213.834 54.8882 218.705 66.2746 218.741 78.1579V167.842C218.705 179.725 213.834 191.112 205.192 199.515C196.55 207.917 184.84 212.654 172.618 212.689H80.3819C68.1605 212.654 56.4501 207.917 47.8082 199.515C39.1664 191.112 34.2953 179.725 34.2588 167.842V78.1579C34.2953 66.2746 39.1664 54.8882 47.8082 46.4855C56.4501 38.0827 68.1605 33.3464 80.3819 33.3109H172.618ZM172.618 15.375H80.3819C44.868 15.375 15.8125 43.6266 15.8125 78.1579V167.842C15.8125 202.373 44.868 230.625 80.3819 230.625H172.618C208.132 230.625 237.188 202.373 237.188 167.842V78.1579C237.188 43.6266 208.132 15.375 172.618 15.375Z" fill="url(#paint0_linear)"/>
<path d="M186.454 78.1576C183.718 78.1576 181.043 77.3686 178.768 75.8904C176.492 74.4121 174.719 72.311 173.672 69.8528C172.624 67.3945 172.35 64.6896 172.884 62.0799C173.418 59.4703 174.736 57.0732 176.671 55.1917C178.606 53.3102 181.071 52.029 183.755 51.5099C186.439 50.9908 189.221 51.2572 191.749 52.2754C194.277 53.2937 196.438 55.018 197.959 57.2303C199.479 59.4427 200.29 62.0437 200.29 64.7045C200.294 66.4722 199.939 68.2233 199.245 69.8573C198.551 71.4912 197.532 72.9758 196.247 74.2258C194.961 75.4758 193.434 76.4666 191.754 77.1413C190.073 77.816 188.272 78.1614 186.454 78.1576Z" fill="url(#paint1_linear)"/>
<path d="M126.5 87.1234C133.798 87.1234 140.931 89.2275 146.999 93.1697C153.067 97.1119 157.796 102.715 160.589 109.271C163.381 115.826 164.112 123.04 162.688 129.999C161.265 136.959 157.751 143.351 152.59 148.369C147.43 153.386 140.856 156.803 133.698 158.187C126.541 159.572 119.122 158.861 112.38 156.146C105.638 153.43 99.8752 148.832 95.8208 142.932C91.7665 137.032 89.6025 130.096 89.6025 123C89.613 113.488 93.5037 104.369 100.421 97.6426C107.338 90.9167 116.717 87.1336 126.5 87.1234ZM126.5 69.1875C115.554 69.1875 104.854 72.3435 95.7526 78.2565C86.6514 84.1695 79.5579 92.5739 75.369 102.407C71.1802 112.24 70.0842 123.06 72.2196 133.498C74.3551 143.937 79.6261 153.525 87.366 161.051C95.106 168.577 104.967 173.702 115.703 175.779C126.439 177.855 137.566 176.789 147.679 172.716C157.792 168.643 166.435 161.746 172.517 152.897C178.598 144.047 181.844 133.643 181.844 123C181.844 108.728 176.013 95.0406 165.634 84.9488C155.255 74.857 141.178 69.1875 126.5 69.1875Z" fill="url(#paint2_linear)"/>
<defs>
<linearGradient id="paint0_linear" x1="16.0001" y1="55.9998" x2="224" y2="198" gradientUnits="userSpaceOnUse">
<stop stop-color="#1B6CE5"/>
<stop offset="1" stop-color="#FF2E2E"/>
</linearGradient>
<linearGradient id="paint1_linear" x1="16.0001" y1="55.9998" x2="224" y2="198" gradientUnits="userSpaceOnUse">
<stop stop-color="#1B6CE5"/>
<stop offset="1" stop-color="#FF2E2E"/>
</linearGradient>
<linearGradient id="paint2_linear" x1="16.0001" y1="55.9998" x2="224" y2="198" gradientUnits="userSpaceOnUse">
<stop stop-color="#1B6CE5"/>
<stop offset="1" stop-color="#FF2E2E"/>
</linearGradient>
</defs>
</svg>
