<svg width="45" height="45" viewBox="0 0 45 45" fill="none" xmlns="http://www.w3.org/2000/svg">
	<path d="M43.5938 9.62395C42.0112 10.3116 40.3369 10.7646 38.6235 10.9687C40.4241 9.91432 41.7782 8.23929 42.4318 6.25774C40.7295 7.25318 38.8701 7.95163 36.9334 8.32316C36.1179 7.46846 35.137 6.78851 34.0505 6.32466C32.964 5.86081 31.7946 5.62274 30.6132 5.62492C25.8302 5.62492 21.9595 9.43938 21.9595 14.1415C21.9561 14.7956 22.031 15.4477 22.1827 16.0839C18.7529 15.9231 15.3945 15.0482 12.3223 13.5151C9.25 11.982 6.53158 9.82448 4.34092 7.18059C3.57238 8.4762 3.16594 9.95445 3.16406 11.4609C3.16406 14.414 4.70479 17.0243 7.03125 18.5536C5.65289 18.5209 4.30277 18.1561 3.09551 17.4902V17.5956C3.09551 21.7265 6.08379 25.163 10.0389 25.9452C9.29512 26.1435 8.5287 26.244 7.75898 26.2441C7.21281 26.245 6.66788 26.192 6.13213 26.0859C7.23164 29.4696 10.4317 31.9306 14.2225 32.0009C11.1422 34.3748 7.3605 35.6578 3.47168 35.6484C2.7814 35.6473 2.09177 35.6062 1.40625 35.5253C5.36236 38.0515 9.96104 39.3877 14.6549 39.3749C30.5947 39.3749 39.3029 26.3935 39.3029 15.1347C39.3029 14.7655 39.2933 14.3964 39.2757 14.0361C40.9659 12.8338 42.4281 11.3397 43.5938 9.62395Z" fill="url(#paint0_linear)"/>
	<defs>
		<linearGradient id="paint0_linear" x1="1" y1="6.00003" x2="44" y2="39" gradientUnits="userSpaceOnUse">
			<stop stop-color="#1B6CE5"/>
			<stop offset="1" stop-color="#EF3D3D"/>
		</linearGradient>
	</defs>
</svg>
